# xmcd CD database file
#
# Track frame offsets:
#	150
#	13397
#	27272
#
# Disc length: 518 seconds
#
# Revision: 0
# Processed by: cddbd v1.5PL3 Copyright (c) Steve Scherf et al.
# Submitted via: CDex 1.50
#
DISCID=1e020403
DTITLE=Nina Simone - Feeling Good
DYEAR=1994
DGENRE=Jazz
TTITLE0=Feeling Good
TTITLE1=My Baby Just Cares For Me (Live)
TTITLE2=I Put A Spell On You
EXTD=YEAR: 1994
EXTT0=
EXTT1=
EXTT2=
PLAYORDER=
